Coordinates
version=1
nRows=8
nColumns=36
inDegrees=yes

Units are S.I. units (second, meters, Newtons, ...)
If the header above contains a line with 'inDegrees', this indicates whether rotational values are in degrees (yes) or radians (no).

endheader
time	pelvis_tilt	pelvis_list	pelvis_rotation	pelvis_tx	pelvis_ty	pelvis_tz	hip_flexion_r	hip_adduction_r	hip_rotation_r	knee_angle_r	knee_angle_r_beta	ankle_angle_r	subtalar_angle_r	mtp_angle_r	hip_flexion_l	hip_adduction_l	hip_rotation_l	knee_angle_l	knee_angle_l_beta	ankle_angle_l	subtalar_angle_l	mtp_angle_l	lumbar_extension	lumbar_bending	lumbar_rotation	arm_flex_r	arm_add_r	arm_rot_r	elbow_flex_r	pro_sup_r	arm_flex_l	arm_add_l	arm_rot_l	elbow_flex_l	pro_sup_l
      0.00000000	      0.00091231	     -4.50301062	     -0.06775968	     -0.93755394	      1.21245835	     -0.09610389	     -2.92077051	      4.04977307	     -1.12374178	      7.84080762	      0.13684791	     -0.37621053	    -22.43582726	     -5.76052119	     -2.09524021	     -5.29348524	      0.45598143	      8.71311037	      0.15207246	     13.79695865	     -8.99769456	     -5.76052119	     -2.58604068	      5.56104305	     -1.69078521	      5.71036442	     -6.02280230	     15.32964226	     22.48404475	     78.82191588	      1.73242853	     -3.61927839	     13.90312935	     23.26008561	     70.04601104
      0.00416670	     -3.63475370	     -3.24835836	     -0.20942389	     -0.93550073	      1.21338516	     -0.09580222	      1.35194553	      3.20732688	     -0.34139179	      7.64477656	      0.13342652	      4.32646854	    -18.69061281	     -5.85088052	      2.61421948	     -3.37614195	      0.14174431	      8.97681926	      0.15667505	     13.76852130	     -7.66837357	     -5.85088052	      2.57248880	      4.15557826	     -1.98849167	      4.05090330	     -5.45799102	     12.81719683	     22.40049230	     78.82084011	      0.83126108	     -3.39218569	     11.64270561	     22.41196111	     69.87155674
      0.00833330	     -4.22118156	     -2.03442408	     -0.27278531	     -0.93406312	      1.20496043	     -0.09576395	      1.38549699	      1.78602838	     -0.87822789	      6.33912760	      0.11063865	      5.14545694	    -16.98458134	     -5.99271707	      2.96546518	     -2.06769328	     -1.07516348	      8.60184993	      0.15013060	     13.69212290	     -6.20498390	     -5.99271707	      3.67636010	      2.57168314	     -1.88393701	      3.36928916	     -4.78449745	     10.80924383	     22.95283603	     77.82691161	      0.65702988	     -3.90696248	     11.31680632	     22.64931269	     69.31199495
      0.01250000	     -3.59140310	     -1.19954580	     -0.21327666	     -0.93202030	      1.22161407	     -0.09566503	     -0.02312681	      0.86047788	     -1.19825549	      5.11261473	      0.08923196	      5.68496782	    -15.07277115	     -5.82722635	      1.36813044	     -1.05938085	     -1.25817017	      7.25106517	      0.12655496	     12.75294842	     -5.73074731	     -5.82722635	      3.21154757	      1.48660926	     -1.37040009	      2.65851476	     -4.35253416	      8.99062826	     23.04876157	     79.32267712	      1.13150506	     -4.43875809	     13.82695868	     21.74377903	     69.96860803
      0.01666670	     -2.89598373	     -0.90264119	     -0.16183915	     -0.93225529	      1.21466339	     -0.09440214	     -1.29937237	      0.61967546	     -0.88449602	      4.15455603	      0.07251068	      5.72031957	    -15.03370964	     -5.97363765	      0.16501393	     -0.69664471	     -1.28201575	      6.46214624	      0.11278573	     12.29317498	     -5.52558490	     -5.97363765	      2.28720516	      1.13436848	     -1.18368768	      2.55265617	     -4.27470916	      9.02508356	     23.50491632	     79.16068115	      1.21361520	     -4.76144982	     14.44858152	     22.08135390	     69.48542151
      0.02083330	     -2.40755573	     -0.82225461	     -0.01796979	     -0.93249779	      1.20515169	     -0.09524271	     -2.02809623	      0.56853773	     -0.86194795	      3.98479335	      0.06954776	      6.00573863	    -15.36425760	     -6.33670459	     -0.48938440	     -0.53697453	     -0.91552546	      6.19181652	      0.10806758	     12.32422066	     -5.46230348	     -6.33670459	      1.70581797	      1.01175132	     -1.00022501	      2.58415377	     -4.48490090	      9.94177343	     23.74945599	     78.07694752	      1.50359012	     -4.91911646	     15.31648674	     22.24816495	     68.52776866
      0.02500000	     -1.90552339	     -0.74049899	     -0.00691840	     -0.93260618	      1.21823194	     -0.09470990	     -2.79998438	      0.54172246	     -0.75837450	      3.62610009	      0.06328739	      5.81711279	    -15.94094681	     -6.49066458	     -1.17001967	     -0.42682150	     -0.91071326	      5.86718549	      0.10240170	     12.04193266	     -5.28248745	     -6.49066458	      1.03390646	      0.95284457	     -0.76677607	      2.69895576	     -4.61241916	     11.05297797	     23.81074882	     76.70723876	      1.84643565	     -4.88443734	     16.23695046	     22.13344431	     67.36603731
      0.02916670	     -1.55679383	     -0.68536937	      0.07247939	     -0.93222117	      1.21496783	     -0.09382488	     -3.33562405	      0.56861119	     -0.54944836	      3.32886309	      0.05809962	      5.60149724	    -16.16383922	     -6.51200165	     -1.56002758	     -0.40517901	     -0.85326676	      5.73401294	      0.10007741	     12.02996797	     -4.90022838	     -6.51200165	      0.51876581	      0.83093866	     -0.73986565	      2.78919745	     -4.70033923	     11.53442618	     23.88819438	     76.84644176	      2.07439599	     -5.05137677	     16.51123355	     22.24447818	     67.08883376
